<?xml version="1.0" encoding="utf-8"?>
<!-- Generator: Adobe Illustrator 15.0.0, SVG Export Plug-In . SVG Version: 6.00 Build 0)  -->
<!DOCTYPE svg PUBLIC "-//W3C//DTD SVG 1.1//EN" "http://www.w3.org/Graphics/SVG/1.1/DTD/svg11.dtd">
<svg version="1.1" id="Шар_1" xmlns="http://www.w3.org/2000/svg" xmlns:xlink="http://www.w3.org/1999/xlink" x="0px" y="0px"
	 width="609.449px" height="496.063px" viewBox="0 -165.826 609.449 496.063" enable-background="new 0 -165.826 609.449 496.063"
	 xml:space="preserve">
<path fill="#FFFFFF" d="M583.803-147.813c-12.145,0-22.312,9.273-24.965,21.726c-5.938-14.77-19.385-25.083-35.031-25.083
	c-12.205,0-23.064,6.276-30.075,16.043c-6.432-13.296-19.165-22.36-33.833-22.36c-13.566,0-25.477,7.759-32.277,19.448
	c-4.526-5.962-11.339-9.759-18.96-9.759c-9.529,0-17.789,5.933-21.9,14.617c-10.936-16.629-28.725-27.463-48.83-27.463
	c-19.055,0-36.029,9.731-47.059,24.902c-5.333-11.418-16.151-19.24-28.639-19.24c-12.857,0-23.951,8.288-29.101,20.263
	c-4.704-6.077-11.708-9.934-19.541-9.934c-10.449,0-19.432,6.867-23.428,16.713c-4.847-17.119-19.385-29.547-36.566-29.547
	c-15.016,0-28.006,9.496-34.278,23.316c-3.049-5.192-8.352-8.641-14.397-8.641c-5.125,0-9.712,2.487-12.852,6.403
	c-8-17.443-24.443-29.418-43.443-29.418C21.772-165.826,0-141.917,0-112.424v49.606v61.886v131.743v81.178v118.248h609.449V211.988
	v-81.178V-0.933v-61.886v-56.833C609.448-135.204,597.966-147.813,583.803-147.813z"/>
</svg>
