<?xml version="1.0" encoding="utf-8"?>
<!-- Generator: Adobe Illustrator 15.0.0, SVG Export Plug-In . SVG Version: 6.00 Build 0)  -->
<!DOCTYPE svg PUBLIC "-//W3C//DTD SVG 1.1//EN" "http://www.w3.org/Graphics/SVG/1.1/DTD/svg11.dtd">
<svg version="1.1" id="Шар_1" xmlns="http://www.w3.org/2000/svg" xmlns:xlink="http://www.w3.org/1999/xlink" x="0px" y="0px"
	 width="606.61px" height="430.87px" viewBox="0 0 606.61 430.87" enable-background="new 0 0 606.61 430.87" xml:space="preserve">
<path fill="#FFFFFF" d="M23.306,151.85c12.168,0,22.354,9.239,25.01,21.642c5.951-14.712,19.423-24.986,35.099-24.986
	c12.227,0,23.109,6.253,30.133,15.982c6.443-13.248,19.201-22.274,33.897-22.274c13.593,0,25.526,7.728,32.34,19.371
	c4.534-5.938,11.359-9.721,18.996-9.721c9.545,0,17.822,5.912,21.941,14.561c10.955-16.564,28.779-27.356,48.923-27.356
	c19.089,0,36.096,9.692,47.149,24.806c5.341-11.376,16.181-19.165,28.692-19.165c12.883,0,23.995,8.255,29.156,20.183
	c4.712-6.052,11.731-9.896,19.576-9.896c10.469,0,19.47,6.841,23.473,16.65c4.856-17.052,19.422-29.433,36.637-29.433
	c15.044,0,28.058,9.46,34.343,23.227c3.055-5.173,8.367-8.608,14.424-8.608c5.136,0,9.731,2.477,12.876,6.378
	c8.017-17.377,24.491-29.304,43.526-29.304c26.906,0,48.718,23.816,48.718,53.195v111.066H-2.387V179.904
	C-2.387,164.41,9.117,151.85,23.306,151.85"/>
</svg>
