<?xml version="1.0" encoding="utf-8"?>
<!-- Generator: Adobe Illustrator 15.0.0, SVG Export Plug-In . SVG Version: 6.00 Build 0)  -->
<!DOCTYPE svg PUBLIC "-//W3C//DTD SVG 1.1//EN" "http://www.w3.org/Graphics/SVG/1.1/DTD/svg11.dtd">
<svg version="1.1" id="Шар_1" xmlns="http://www.w3.org/2000/svg" xmlns:xlink="http://www.w3.org/1999/xlink" x="0px" y="0px"
	 width="85.04px" height="201.26px" viewBox="260.785 114.805 85.04 201.26" enable-background="new 260.785 114.805 85.04 201.26"
	 xml:space="preserve">
<g>
	<g opacity="0.5">
		<g>
			<g>
				<defs>
					<rect id="SVGID_1_" x="287.628" y="230.839" width="31.692" height="85.226"/>
				</defs>
				<clipPath id="SVGID_2_">
					<use xlink:href="#SVGID_1_"  overflow="visible"/>
				</clipPath>
				<path clip-path="url(#SVGID_2_)" fill="#FFFFFF" d="M303.474,230.839c-8.751,0-15.846,7.176-15.846,16.025
					c0,23.017,15.846,38.062,15.846,69.198c0-31.137,15.846-46.182,15.846-69.198C319.321,238.015,312.227,230.839,303.474,230.839"
					/>
			</g>
		</g>
	</g>
	<g>
		<g>
			<g>
				<defs>
					<rect id="SVGID_3_" x="292.866" y="230.839" width="21.218" height="57.056"/>
				</defs>
				<clipPath id="SVGID_4_">
					<use xlink:href="#SVGID_3_"  overflow="visible"/>
				</clipPath>
				<path clip-path="url(#SVGID_4_)" fill="#E85645" d="M303.474,230.839c-5.858,0-10.609,4.802-10.609,10.73
					c0,15.408,10.609,25.478,10.609,46.325c0-20.847,10.609-30.917,10.609-46.325C314.083,235.641,309.333,230.839,303.474,230.839"
					/>
			</g>
		</g>
	</g>
	<g>
		<g>
			<defs>
				<path id="SVGID_5_" d="M290.496,232.992c-0.005,1.037,0.822,1.881,1.847,1.888l21.798,0.109c1.026,0.006,1.86-0.83,1.866-1.866
					l0.021-4.092l-25.513-0.128L290.496,232.992z"/>
			</defs>
			<clipPath id="SVGID_6_">
				<use xlink:href="#SVGID_5_"  overflow="visible"/>
			</clipPath>
			
				<linearGradient id="SVGID_7_" gradientUnits="userSpaceOnUse" x1="-85.6797" y1="-43.5625" x2="-84.6743" y2="-43.5625" gradientTransform="matrix(0 -6.0584 6.0584 0 567.178 -284.0853)">
				<stop  offset="0" style="stop-color:#FFFFFF"/>
				<stop  offset="0.1671" style="stop-color:#EDF3FA"/>
				<stop  offset="0.5364" style="stop-color:#C9DBEF"/>
				<stop  offset="0.8267" style="stop-color:#B1CCE8"/>
				<stop  offset="1" style="stop-color:#A7C7E6"/>
			</linearGradient>
			<rect x="290.491" y="228.902" clip-path="url(#SVGID_6_)" fill="url(#SVGID_7_)" width="25.537" height="6.093"/>
		</g>
	</g>
	<g>
		<g>
			<defs>
				<path id="SVGID_8_" d="M315.711,228.728l21.248,19.581c0.658,0.624,1.735,0.301,1.953-0.587l6.623-27.203
					c0.693-2.852,0.126-5.869-1.557-8.264l-14.03-19.958L315.711,228.728z"/>
			</defs>
			<clipPath id="SVGID_9_">
				<use xlink:href="#SVGID_8_"  overflow="visible"/>
			</clipPath>
			
				<linearGradient id="SVGID_10_" gradientUnits="userSpaceOnUse" x1="-73.0962" y1="-31.1665" x2="-72.1025" y2="-31.1665" gradientTransform="matrix(30.3083 0 0 30.3083 2531.1274 1165.2164)">
				<stop  offset="0" style="stop-color:#EC721C"/>
				<stop  offset="0.379" style="stop-color:#F39932"/>
				<stop  offset="1" style="stop-color:#FED763"/>
			</linearGradient>
			<rect x="315.711" y="192.297" clip-path="url(#SVGID_9_)" fill="url(#SVGID_10_)" width="30.518" height="56.636"/>
		</g>
	</g>
	<g>
		<g>
			<defs>
				<path id="SVGID_11_" d="M262.67,211.98c-1.698,2.383-2.287,5.396-1.611,8.253l6.442,27.247c0.209,0.888,1.287,1.22,1.948,0.601
					l21.378-19.437l-13.995-36.528L262.67,211.98z"/>
			</defs>
			<clipPath id="SVGID_12_">
				<use xlink:href="#SVGID_11_"  overflow="visible"/>
			</clipPath>
			
				<linearGradient id="SVGID_13_" gradientUnits="userSpaceOnUse" x1="-73.0884" y1="-36.9712" x2="-72.0951" y2="-36.9712" gradientTransform="matrix(30.2368 0 0 -30.2368 2470.7559 -897.4584)">
				<stop  offset="0" style="stop-color:#FED763"/>
				<stop  offset="0.621" style="stop-color:#F39932"/>
				<stop  offset="1" style="stop-color:#EC721C"/>
			</linearGradient>
			<rect x="260.383" y="192.116" clip-path="url(#SVGID_12_)" fill="url(#SVGID_13_)" width="30.444" height="56.584"/>
		</g>
	</g>
	<g>
		<g>
			<defs>
				<path id="SVGID_14_" d="M285.656,227.349c0.6,0.925,1.521,1.48,2.505,1.484l30.114,0.161c0.984,0.006,1.91-0.537,2.519-1.458
					c19.683-29.647,6.876-92.608-17.055-112.731C279.617,134.67,266.254,197.49,285.656,227.349"/>
			</defs>
			<clipPath id="SVGID_15_">
				<use xlink:href="#SVGID_14_"  overflow="visible"/>
			</clipPath>
			
				<linearGradient id="SVGID_16_" gradientUnits="userSpaceOnUse" x1="-70.9658" y1="-33.0078" x2="-69.9617" y2="-33.0078" gradientTransform="matrix(64.8702 64.8702 -64.8702 64.8702 2737.2131 6888.2178)">
				<stop  offset="0" style="stop-color:#FFFFFF"/>
				<stop  offset="0.2031" style="stop-color:#FCFDFE"/>
				<stop  offset="0.4042" style="stop-color:#F2F6FB"/>
				<stop  offset="0.6047" style="stop-color:#E1EBF6"/>
				<stop  offset="0.8034" style="stop-color:#C9DBEF"/>
				<stop  offset="1" style="stop-color:#A7C7E6"/>
			</linearGradient>
			<polygon clip-path="url(#SVGID_15_)" fill="url(#SVGID_16_)" points="303.365,77.271 396.929,171.904 303.365,266.536 
				209.799,171.904 			"/>
		</g>
	</g>
	<g>
		<g>
			<defs>
				<path id="SVGID_17_" d="M282.868,149.591c0.012-0.037,0.024-0.075,0.037-0.112C281.832,149.498,281.695,149.534,282.868,149.591
					 M282.905,149.479c6.004-0.109,41.368,0.287,41.368,0.287c-4.731-14.844-11.899-27.697-20.536-34.96
					C295.045,121.964,287.77,134.713,282.905,149.479"/>
			</defs>
			<clipPath id="SVGID_18_">
				<use xlink:href="#SVGID_17_"  overflow="visible"/>
			</clipPath>
			
				<linearGradient id="SVGID_19_" gradientUnits="userSpaceOnUse" x1="-70.6631" y1="-31.6445" x2="-69.6586" y2="-31.6445" gradientTransform="matrix(27.8736 27.8736 -27.8736 27.8736 1382.074 2975.4666)">
				<stop  offset="0" style="stop-color:#FED763"/>
				<stop  offset="0.621" style="stop-color:#F39932"/>
				<stop  offset="1" style="stop-color:#EC721C"/>
			</linearGradient>
			<polygon clip-path="url(#SVGID_18_)" fill="url(#SVGID_19_)" points="302.983,93.274 341.556,132.285 302.983,171.298 
				264.411,132.285 			"/>
		</g>
	</g>
	<g>
		<g>
			<defs>
				<path id="SVGID_20_" d="M292.288,166.976c-4.562,6.232-3.264,15.026,2.898,19.638c6.163,4.615,14.855,3.303,19.419-2.93
					c4.562-6.232,3.265-15.024-2.898-19.639c-2.483-1.859-5.379-2.756-8.249-2.756C299.208,161.289,295.011,163.256,292.288,166.976
					"/>
			</defs>
			<clipPath id="SVGID_21_">
				<use xlink:href="#SVGID_20_"  overflow="visible"/>
			</clipPath>
			
				<linearGradient id="SVGID_22_" gradientUnits="userSpaceOnUse" x1="-70.4214" y1="-30.3774" x2="-69.4167" y2="-30.3774" gradientTransform="matrix(19.662 19.8644 -19.8644 19.662 1074.324 2162)">
				<stop  offset="0" style="stop-color:#FCC719"/>
				<stop  offset="0.2529" style="stop-color:#F8B32E"/>
				<stop  offset="0.5358" style="stop-color:#F4A137"/>
				<stop  offset="0.7932" style="stop-color:#F2953B"/>
				<stop  offset="1" style="stop-color:#F1903C"/>
			</linearGradient>
			<polygon clip-path="url(#SVGID_21_)" fill="url(#SVGID_22_)" points="303.607,145.39 333.966,176.412 303.285,207.126 
				272.926,176.105 			"/>
		</g>
	</g>
	<g>
		<g>
			<defs>
				<path id="SVGID_23_" d="M301.786,164.081c-6.144,0.927-10.378,6.715-9.462,12.928c0.918,6.212,6.642,10.497,12.784,9.569
					c6.143-0.926,10.378-6.714,9.461-12.927c-0.834-5.645-5.632-9.697-11.109-9.696
					C302.908,163.955,302.349,163.997,301.786,164.081"/>
			</defs>
			<clipPath id="SVGID_24_">
				<use xlink:href="#SVGID_23_"  overflow="visible"/>
			</clipPath>
			
				<linearGradient id="SVGID_25_" gradientUnits="userSpaceOnUse" x1="-70.2627" y1="-29.5229" x2="-69.2584" y2="-29.5229" gradientTransform="matrix(16.008 16.008 -16.008 16.008 947.3638 1764.8556)">
				<stop  offset="0" style="stop-color:#3A5AA1"/>
				<stop  offset="0.3697" style="stop-color:#3957A0"/>
				<stop  offset="0.7257" style="stop-color:#35509B"/>
				<stop  offset="1" style="stop-color:#314795"/>
			</linearGradient>
			<polygon clip-path="url(#SVGID_24_)" fill="url(#SVGID_25_)" points="303.446,151.778 327.127,175.73 303.446,199.683 
				279.765,175.73 			"/>
		</g>
	</g>
	<g>
		<g>
			<defs>
				<path id="SVGID_26_" d="M311.229,167.981c0.165,1.399,0.46,2.844,0.061,4.195c-0.368,1.25-1.347,2.299-2.562,2.741
					c-1.739,0.633-3.765,0.058-5.447,0.828c-2.049,0.94-2.922,3.562-4.949,4.55c-0.958,0.467-2.074,0.508-3.124,0.343
					c-0.743-0.116-1.487-0.349-2.08-0.812c1.968,4.627,6.819,7.532,11.978,6.753c6.144-0.927,10.379-6.715,9.462-12.927
					c-0.388-2.625-1.638-4.9-3.411-6.59C311.17,167.372,311.194,167.68,311.229,167.981"/>
			</defs>
			<clipPath id="SVGID_27_">
				<use xlink:href="#SVGID_26_"  overflow="visible"/>
			</clipPath>
			
				<linearGradient id="SVGID_28_" gradientUnits="userSpaceOnUse" x1="-69.832" y1="-27.4028" x2="-68.8267" y2="-27.4028" gradientTransform="matrix(10.9591 10.9591 -10.9591 10.9591 764.9421 1238.4719)">
				<stop  offset="0" style="stop-color:#314795"/>
				<stop  offset="0.3693" style="stop-color:#334B97"/>
				<stop  offset="0.8915" style="stop-color:#38579F"/>
				<stop  offset="1" style="stop-color:#3A5AA1"/>
			</linearGradient>
			<polygon clip-path="url(#SVGID_27_)" fill="url(#SVGID_28_)" points="304.306,155.756 325.517,177.209 304.306,198.664 
				283.095,177.209 			"/>
		</g>
	</g>
	<g>
		<g>
			<defs>
				<path id="SVGID_29_" d="M299.68,213.73c-0.632,3.301-0.923,6.664-0.869,10.026l0.369,27.199
					c0.036,2.188,1.793,3.946,3.954,3.958c2.165,0.01,3.938-1.729,3.995-3.916l0.627-27.193c0.088-3.364-0.171-6.729-0.77-10.037
					l-2.441-13.485l-2.29-0.012L299.68,213.73z"/>
			</defs>
			<clipPath id="SVGID_30_">
				<use xlink:href="#SVGID_29_"  overflow="visible"/>
			</clipPath>
			
				<linearGradient id="SVGID_31_" gradientUnits="userSpaceOnUse" x1="-70.667" y1="-31.519" x2="-69.6622" y2="-31.519" gradientTransform="matrix(28.4707 28.4707 -28.4707 28.4707 1403.6898 3122.6919)">
				<stop  offset="0" style="stop-color:#FED763"/>
				<stop  offset="0.621" style="stop-color:#F39932"/>
				<stop  offset="1" style="stop-color:#EC721C"/>
			</linearGradient>
			<polygon clip-path="url(#SVGID_30_)" fill="url(#SVGID_31_)" points="303.3,195.673 334.862,227.595 303.3,259.518 
				271.738,227.595 			"/>
		</g>
	</g>
</g>
</svg>
